<svg xmlns="http://www.w3.org/2000/svg" xmlns:xlink="http://www.w3.org/1999/xlink" viewBox="0 0 273.64 158.82"><defs><style>.cls-1,.cls-5{fill:none;}.cls-2{fill:#22759c;}.cls-3{clip-path:url(#clip-path);}.cls-4{fill:#8dc63f;}.cls-5{stroke:#8dc63f;stroke-miterlimit:10;stroke-width:3px;}</style><clipPath id="clip-path" transform="translate(-284.13 -217.48)"><rect class="cls-1" width="841.89" height="595.28"/></clipPath></defs><title>liber_logoAsset 2</title><g id="Layer_2" data-name="Layer 2"><g id="Layer_1-2" data-name="Layer 1"><polygon class="cls-2" points="15.12 81.67 0 81.67 0 158.82 49.41 158.82 49.41 145.79 15.12 145.79 15.12 81.67"/><rect class="cls-2" x="57.48" y="93.81" width="15.12" height="65.01"/><g class="cls-3"><path class="cls-2" d="M413,335.31a17.6,17.6,0,0,0,11.61-16.51c0-11.94-9.18-19.65-23.37-19.65H368.41V376.3h33.1c16.51,0,26.77-8.54,26.77-22.27,0-9.31-6.17-16.66-15.32-18.72m-.11,17.78c0,9.15-7.85,11.07-14.43,11.07H383.53v-22H397.9c9.92,0,15,3.67,15,10.92M383.53,331V311.28h14.32c7.58,0,11.75,3.38,11.75,9.51,0,6.57-4.94,10.18-13.9,10.18Z" transform="translate(-284.13 -217.48)"/><polygon class="cls-2" points="152.12 158.82 202.63 158.82 202.63 145.79 167.25 145.79 167.25 125.84 200.69 125.84 200.69 113.49 167.25 113.49 167.25 94.7 202.63 94.7 202.63 81.67 152.12 81.67 152.12 158.82"/><path class="cls-2" d="M541.07,345.45c8.6-3.51,13.89-11.84,13.89-22,0-15-10.31-24.31-26.92-24.31H496.87V376.3H512V347.87h13.67l14.82,28.43h17.28ZM512,311.7h14.48c8.14,0,13,4.51,13,12.07s-4.63,12.12-12.7,12.12H512Z" transform="translate(-284.13 -217.48)"/><path class="cls-4" d="M349.92,285l-34.13-34.76a38.62,38.62,0,0,1,55-15.41l-21,21.18-10.93-10.86-7,7.08,18,17.91,42.2-42.3-7-7.17-7,7a48.6,48.6,0,0,0-72.94,21.75l-1.21,3,45.78,46.63,19.84-19.4-7-7.14Z" transform="translate(-284.13 -217.48)"/><path class="cls-5" d="M349.92,285l-34.13-34.76a38.62,38.62,0,0,1,55-15.41l-21,21.18-10.93-10.86-7,7.08,18,17.91,42.2-42.3-7-7.17-7,7a48.6,48.6,0,0,0-72.94,21.75l-1.21,3,45.78,46.63,19.84-19.4-7-7.14Z" transform="translate(-284.13 -217.48)"/></g></g></g></svg>